<?xml version="1.0" encoding="UTF-8" standalone="no"?><!DOCTYPE svg PUBLIC "-//W3C//DTD SVG 1.1//EN" "http://www.w3.org/Graphics/SVG/1.1/DTD/svg11.dtd"><svg width="100%" height="100%" viewBox="0 0 8334 8334" version="1.1" xmlns="http://www.w3.org/2000/svg" xmlns:xlink="http://www.w3.org/1999/xlink" xml:space="preserve" xmlns:serif="http://www.serif.com/" style="fill-rule:evenodd;clip-rule:evenodd;stroke-linejoin:round;stroke-miterlimit:2;"><circle cx="4167" cy="4167" r="4167" style="fill:#020617;"/><g id="MR" transform="translate(100, 100) scale(0.98)"><path d="M1942.877,3141.801l787.096,1046.238l1372.313,-1853.225l0,2815.588l-531.454,0l0,-1158.063l-836.558,1158.063l-791.396,-1158.063l0,-850.537Z" style="fill:#fbfdff;fill-rule:nonzero;"/><path d="M5648.792,3582.662c-20.163,-11.292 -49.196,15.321 -49.196,15.321c0,0 -29.029,9.679 -41.129,8.871c-12.096,-0.804 -43.55,20.967 -66.933,23.388c-23.387,2.421 -67.742,8.062 -85.488,0c-17.742,-8.062 -40.321,-17.742 -40.321,-17.742c0,0 -178.225,-20.162 -213.708,-63.708c0,0 -77.421,-8.062 -91.129,-36.292c0,0 2.417,-30.646 -22.583,-37.096c-25,-6.454 -60.479,8.062 -60.479,8.062c0,0 -58.067,-84.675 -75,-95.163c-16.938,-10.483 -28.229,-31.45 -26.617,-42.737c1.617,-11.292 -0.15,-63.713 -0.15,-63.713c0,0 -14.363,-33.062 -26.462,-40.321c-12.096,-7.258 -7.258,-33.067 -7.258,-33.067c0,0 -33.871,-45.967 -59.675,-58.871c-25.804,-12.9 -16.129,-46.775 -16.129,-46.775c0,0 -4.033,-13.708 -11.292,-21.771c-7.258,-8.067 8.871,-62.904 22.583,-64.517c13.708,-1.613 58.371,8.867 83.062,-30.646c12.096,-19.354 8.067,-29.033 8.067,-29.033c0,0 -13.712,-8.062 -18.55,-12.904c-4.837,-4.838 -0.808,-38.708 -0.808,-46.771c0,0 8.067,-4.842 7.262,-16.938c-0.812,-12.096 9.675,-10.483 9.675,-10.483c0,0 49.192,11.15 61.292,-0.071c12.092,-11.221 52.417,-18.479 98.383,-69.283c0,0 25,-40.321 110.487,-24.196c0,0 9.675,12.904 33.062,16.129c23.388,3.229 57.258,-6.45 75.808,5.646c18.546,12.1 29.029,10.483 29.029,10.483c0,0 73.387,-0.804 103.229,9.679c29.837,10.483 129.837,30.646 154.837,159.675c0,0 -4.837,10.483 16.933,32.263c21.775,21.771 36.292,54.837 41.129,74.192c4.842,19.354 39.517,60.483 55.646,69.354c16.129,8.871 73.387,25.808 98.387,61.292c25,35.483 12.904,56.45 12.904,56.45c0,0 -66.938,100 -57.258,168.55l1.613,43.546c0,0 20.967,9.679 21.775,16.938c0.804,7.258 6.45,20.162 0,33.871c-6.454,13.708 -44.358,48.387 -44.358,48.387c0,0 -10.479,11.287 -30.642,0m744.354,-404.842c-0.408,-992.213 -1086.288,-1106.183 -1086.288,-1106.183l-1173.392,0l0,3133.604l-2190.588,0l0,116.129l2830.104,0l0,-1195.158l838.712,1195.158l781.45,0l-728.229,-1054.837c0,0 728.596,-193.55 728.229,-1088.713" style="fill:#fbfdff;fill-rule:nonzero;"/></g></svg>